<svg width="20" height="20" viewBox="0 0 20 20" fill="none" xmlns="http://www.w3.org/2000/svg">
<path fill-rule="evenodd" clip-rule="evenodd" d="M12.5 3.125H15.9912L11.2248 7.89139L12.1087 8.77528L16.875 4.00897V7.5H18.125V2.5V1.875H17.5H12.5V3.125ZM3.125 15.991V12.5H1.875V17.5V18.125H2.5H7.5V16.875H4.00872L8.77528 12.1084L7.89139 11.2246L3.125 15.991ZM11.2247 12.1084L15.9913 16.875H12.5V18.125H17.5H18.125V17.5V12.5H16.875V15.991L12.1086 11.2246L11.2247 12.1084ZM4.00905 3.125L7.5 3.125V1.875H2.5H1.875V2.5V7.5H3.125L3.125 4.00872L7.89155 8.77528L8.77544 7.89139L4.00905 3.125Z" fill="white"/>
</svg>
