<svg width="16" height="16" viewBox="0 0 16 16" fill="none" xmlns="http://www.w3.org/2000/svg">
<path d="M6.08471 13.6136V11.6509C6.0847 11.1517 6.51311 10.746 7.0439 10.7427H8.98821C9.52153 10.7427 9.95388 11.1493 9.95388 11.6509V11.6509V13.6197C9.95376 14.0436 10.3135 14.39 10.764 14.3999H12.0602C13.3524 14.3999 14.3999 13.4147 14.3999 12.1995V12.1995V6.61613C14.393 6.13804 14.1543 5.6891 13.7518 5.39706L9.31874 2.03851C8.54213 1.45372 7.43814 1.45372 6.66152 2.03851L2.24795 5.40315C1.8439 5.69401 1.60483 6.1437 1.59985 6.62222V12.1995C1.59985 13.4147 2.64735 14.3999 3.9395 14.3999H5.2357C5.69744 14.3999 6.07175 14.0479 6.07175 13.6136V13.6136" stroke="#003B4D" stroke-width="1.25" stroke-linejoin="round"/>
</svg>
