<svg width="20" height="20" viewBox="0 0 20 20" fill="none" xmlns="http://www.w3.org/2000/svg">
<path d="M9.99994 17.0002C13.8659 17.0002 16.9999 13.8661 16.9999 10.0002C16.9999 6.13417 13.8659 3.00015 9.99994 3.00015C6.13394 3.00015 2.99994 6.13417 2.99994 10.0002C2.99994 13.8661 6.13394 17.0002 9.99994 17.0002Z" stroke="white" stroke-width="1.25" stroke-linejoin="round"/>
<path d="M15.9999 10.0002H17.9999" stroke="white" stroke-width="1.25" stroke-linecap="square" stroke-linejoin="round"/>
<path d="M3.99994 10.0002H1.99994" stroke="white" stroke-width="1.25" stroke-linecap="square" stroke-linejoin="round"/>
<path d="M9.99994 4.00015V2.00015" stroke="white" stroke-width="1.25" stroke-linecap="square" stroke-linejoin="round"/>
<path d="M9.99994 16.0002V18.0002" stroke="white" stroke-width="1.25" stroke-linecap="square" stroke-linejoin="round"/>
<path d="M9.99994 12.0002C11.1045 12.0002 11.9999 11.1047 11.9999 10.0002C11.9999 8.89558 11.1045 8.00015 9.99994 8.00015C8.89537 8.00015 7.99994 8.89558 7.99994 10.0002C7.99994 11.1047 8.89537 12.0002 9.99994 12.0002Z" stroke="white" stroke-width="1.25" stroke-linejoin="round"/>
</svg>
