<svg width="24" height="20" viewBox="0 0 24 20" fill="none" xmlns="http://www.w3.org/2000/svg">
<circle cx="12" cy="7.5" r="1.5" transform="rotate(-180 12 7.5)" fill="white" fill-opacity="0.3"/>
<circle cx="17" cy="7.5" r="1.5" transform="rotate(-180 17 7.5)" fill="white" fill-opacity="0.3"/>
<circle cx="22" cy="7.5" r="1.5" transform="rotate(-180 22 7.5)" fill="white" fill-opacity="0.3"/>
<circle cx="7" cy="7.5" r="1.5" transform="rotate(-180 7 7.5)" fill="white" fill-opacity="0.3"/>
<circle cx="2" cy="7.5" r="1.5" transform="rotate(-180 2 7.5)" fill="white" fill-opacity="0.3"/>
<circle cx="12" cy="12.5" r="1.5" transform="rotate(-180 12 12.5)" fill="white" fill-opacity="0.3"/>
<circle cx="17" cy="12.5" r="1.5" transform="rotate(-180 17 12.5)" fill="white" fill-opacity="0.3"/>
<circle cx="22" cy="12.5" r="1.5" transform="rotate(-180 22 12.5)" fill="white" fill-opacity="0.3"/>
<circle cx="7" cy="12.5" r="1.5" transform="rotate(-180 7 12.5)" fill="white" fill-opacity="0.3"/>
<circle cx="2" cy="12.5" r="1.5" transform="rotate(-180 2 12.5)" fill="white" fill-opacity="0.3"/>
</svg>
