<svg width="16" height="16" viewBox="0 0 16 16" fill="none" xmlns="http://www.w3.org/2000/svg">
<path d="M4.26738 8.99785C3.71654 8.99785 3.26904 8.55035 3.26904 8.00035C3.26904 7.45035 3.71654 7.00201 4.26738 7.00201C4.81821 7.00201 5.26571 7.45035 5.26571 8.00035C5.26571 8.55035 4.81821 8.99785 4.26738 8.99785Z" fill="#17BEBB"/>
<path d="M8.00016 8.99785C7.44933 8.99785 7.00183 8.55035 7.00183 8.00035C7.00183 7.45035 7.44933 7.00201 8.00016 7.00201C8.551 7.00201 8.9985 7.45035 8.9985 8.00035C8.9985 8.55035 8.551 8.99785 8.00016 8.99785Z" fill="#17BEBB"/>
<path d="M0.625 3.80334C0.625 2.04803 2.04796 0.625061 3.80328 0.625061H12.1967C13.952 0.625061 15.375 2.04802 15.375 3.80334V12.1968C15.375 13.9521 13.952 15.3751 12.1967 15.3751H3.80328C2.04796 15.3751 0.625 13.9521 0.625 12.1968V3.80334Z" stroke="#17BEBB" stroke-width="1.25"/>
<path d="M11.7327 8.99785C11.1819 8.99785 10.7344 8.55035 10.7344 8.00035C10.7344 7.45035 11.1819 7.00201 11.7327 7.00201C12.2835 7.00201 12.731 7.45035 12.731 8.00035C12.731 8.55035 12.2835 8.99785 11.7327 8.99785Z" fill="#17BEBB"/>
</svg>
